<svg data-v-37f88cd9="" version="1.0" 
    xmlns="http://www.w3.org/2000/svg" 
    xmlns:xlink="http://www.w3.org/1999/xlink" width="100%" height="100%" viewBox="0 0 340.000000 100.000000" preserveAspectRatio="xMidYMid meet" color-interpolation-filters="sRGB" class="el-tooltip" style="margin: auto;">
    <g data-v-37f88cd9="" fill="#fff" class="iconbordersvg" transform="translate(53.83441925048828,5.32134246826172)">
        <g transform="translate(0.000579833984375,0)">
            <rect fill="#fff" width="98.18150043487549" height="3" fill-opacity="1" x="0" y="13.5"></rect>
            <g transform="translate(101.18150043487549,0)">                <!---->
                <svg filter="url(#colors363025894)" x="0" y="0" width="25.96700027049" height="30" filtersec="colorsf9148826527" class="image-svg-svg">
                    <svg xmlns="http://www.w3.org/2000/svg" viewBox="0 0 83.7 96.7">
                        <path d="M41.9 94.4L2 71.4v-46l39.9-23 39.9 23v46l-39.9 23zm2-20.6l21-12.1V37.4M39.8 22.9L18.8 35v24.3m62.9-12.2L23 13.2M2 49.6l58.7 33.9" fill="none" stroke="#202121" stroke-width="4" stroke-miterlimit="10"></path>
                    </svg>
                </svg>
                <defs>
                    <filter id="colors363025894">
                        <feColorMatrix type="matrix" values="0 0 0 0 0.99609375  0 0 0 0 0.99609375  0 0 0 0 0.99609375  0 0 0 1 0" class="icon-fecolormatrix"></feColorMatrix>
                    </filter>
                    <filter id="colorsf9148826527">
                        <feColorMatrix type="matrix" values="0 0 0 0 0.99609375  0 0 0 0 0.99609375  0 0 0 0 0.99609375  0 0 0 1 0" class="icon-fecolormatrix"></feColorMatrix>
                    </filter>
                    <filter id="colorsb1999680773">
                        <feColorMatrix type="matrix" values="0 0 0 0 0  0 0 0 0 0  0 0 0 0 0  0 0 0 1 0" class="icon-fecolormatrix"></feColorMatrix>
                    </filter>
                </defs>
            </g>
            <rect fill="#fff" width="98.18150043487549" height="3" fill-opacity="1" x="130.14850425720215" y="13.5"></rect>
        </g>
        <g transform="translate(0,31.54188346862793)">
            <g class="tp-name" transform="translate(0,0)">
                <g>
                    <path d="M2.84-19.19L6.92-19.19L6.92-3.87Q6.92-0.69 4.37 0.61L4.37 0.61Q3.07 1.25 1.80 1.25L1.80 1.25L1.30 0.21Q2.81-0.80 2.81-3.87L2.81-3.87L2.84-19.19ZM27.91 1.25L27.91-0.29Q26.88-0.29 26.88-1.33L26.88-1.33L26.88-13.07L12.59-13.07Q11.82-13.07 11.05-12.70L11.05-12.70Q9.52-11.93 9.52-9.99L9.52-9.99L9.52-1.83Q9.52-1.06 9.89-0.29L9.89-0.29Q10.66 1.25 12.59 1.25L12.59 1.25L21.26 1.25Q22.74 1.25 23.56 0.29L23.56 0.29Q24.36 1.25 25.87 1.25L25.87 1.25L27.91 1.25ZM22.80-11.53L22.80-1.83Q22.77-0.29 21.26-0.29L21.26-0.29L14.63-0.29Q13.60-0.29 13.60-1.33L13.60-1.33L13.60-10.52Q13.60-11.53 14.63-11.53L14.63-11.53L22.80-11.53ZM30.51-4.59L30.51-13.07L34.59-13.07L34.59-5.91L38.67-0.29L40.71-0.29L44.82-5.91L44.82-13.07L48.91-13.07L48.91-4.59L44.66 1.25L34.75 1.25L30.51-4.59ZM69.90 1.25L69.90-0.29Q68.86-0.29 68.86-1.33L68.86-1.33L68.86-13.07L54.58-13.07Q53.81-13.07 53.04-12.70L53.04-12.70Q51.50-11.93 51.50-9.99L51.50-9.99L51.50-1.83Q51.50-1.06 51.87-0.29L51.87-0.29Q52.64 1.25 54.58 1.25L54.58 1.25L63.25 1.25Q64.73 1.25 65.55 0.29L65.55 0.29Q66.35 1.25 67.86 1.25L67.86 1.25L69.90 1.25ZM64.78-11.53L64.78-1.83Q64.76-0.29 63.25-0.29L63.25-0.29L56.62-0.29Q55.58-0.29 55.58-1.33L55.58-1.33L55.58-10.52Q55.58-11.53 56.62-11.53L56.62-11.53L64.78-11.53ZM72.50-0.29L72.50 1.25L93.97 1.25Q94.74 1.25 95.50 0.85L95.50 0.85Q97.02 0.08 97.02-1.83L97.02-1.83Q97.02-3.10 96.01-4.14L96.01-4.14Q95.42-4.72 94.97-4.90L94.97-4.90L77.08-15.93Q76.58-16.14 76.58-16.65L76.58-16.65Q76.58-17.65 77.61-17.65L77.61-17.65L97.02-17.65L97.02-19.19L75.57-19.19Q74.80-19.19 74.03-18.82L74.03-18.82Q72.50-18.05 72.50-16.14L72.50-16.14Q72.50-14.84 73.50-13.84L73.50-13.84Q74.09-13.25 74.54-13.07L74.54-13.07L92.43-2.04Q92.93-1.83 92.93-1.33L92.93-1.33Q92.93-0.29 91.93-0.29L91.93-0.29L72.50-0.29ZM118.04-11.53L118.04-13.07L102.71-13.07Q101.95-13.07 101.18-12.70L101.18-12.70Q99.64-11.93 99.64-9.99L99.64-9.99L99.64-1.83Q99.64-1.06 100.01-0.29L100.01-0.29Q100.78 1.25 102.71 1.25L102.71 1.25L118.04 1.25L118.04-0.29L104.76-0.29Q103.72-0.29 103.72-1.33L103.72-1.33L103.72-10.52Q103.72-11.53 104.76-11.53L104.76-11.53L118.04-11.53ZM120.63-9.99L120.63 1.25L124.71 1.25L124.71-10.52Q124.71-11.53 125.72-11.53L125.72-11.53L129.83-11.53L129.83-13.07L123.68-13.07Q121.77-13.07 121.00-11.53L121.00-11.53Q120.63-10.76 120.63-9.99L120.63-9.99ZM136.51 1.25L132.43 1.25L132.43-13.07L136.51-13.07L136.51 1.25ZM136.51-15.11L132.43-15.11L132.43-19.19L136.51-19.19L136.51-15.11ZM143.19 6.34L143.19 1.22L154.43 1.22Q155.20 1.22 155.97 0.85L155.97 0.85Q157.50 0.08 157.50-1.83L157.50-1.83L157.50-10.02Q157.50-10.79 157.13-11.56L157.13-11.56Q156.36-13.07 154.43-13.07L154.43-13.07L139.11-13.07L139.11 6.34L143.19 6.34ZM143.19-0.32L143.19-11.56L152.39-11.56Q153.42-11.56 153.42-10.52L153.42-10.52L153.42-1.33Q153.42-0.32 152.39-0.32L152.39-0.32L143.19-0.32ZM169.30-19.19L165.22-19.19L165.22-13.07L160.10-13.07L160.10-11.53L165.22-11.53L165.22-1.83Q165.22 0.08 166.75 0.85L166.75 0.85Q167.50 1.25 168.27 1.25L168.27 1.25L174.42 1.25L174.42-0.29L170.31-0.29Q169.30-0.29 169.30-1.33L169.30-1.33L169.30-11.53L174.42-11.53L174.42-13.07L169.30-13.07L169.30-19.19ZM185.12-16.14L185.12-17.65L176.43-17.65L176.43-16.14L181.02-16.14Q180.01-11.03 175.93-5.91L175.93-5.91L176.43-4.90Q177.54-5.22 178.97-6.26L178.97-6.26L178.97 4.29L183.08 4.29L183.08-10.79Q184.46-13.17 185.12-16.14L185.12-16.14ZM196.10 4.29L192.02 4.29L192.02 0.21L186.63 0.21L186.63-19.72L192.02-19.72L192.02-22.27L196.10-22.27L196.10-19.72L201.45-19.72L201.45 0.21L196.10 0.21L196.10 4.29ZM190.74-1.33L192.02-1.33L192.02-8.99L190.74-8.99L190.74-1.33ZM190.74-10.52L192.02-10.52L192.02-18.18L190.74-18.18L190.74-10.52ZM197.37-18.18L196.10-18.18L196.10-10.52L197.37-10.52L197.37-18.18ZM197.37-8.99L196.10-8.99L196.10-1.33L197.37-1.33L197.37-8.99ZM186.13-4.37L183.83-4.37L183.32-9.99L185.63-9.99L186.13-4.37ZM183.08-18.69L178.97-18.69L178.47-22.27L182.55-22.27L183.08-18.69ZM215.85-13.57L204.08-13.57L204.08-21.23L215.85-21.23L215.85-13.57ZM216.32-9.49L216.38-9.49Q219.61-6.02 224.41-4.37L224.41-4.37L216.85-4.37L216.85 3.79L228.60 3.79L228.60-3.42Q228.94-3.37 229.13-3.37L229.13-3.37L229.63-4.37Q225.39-6.36 221.73-9.49L221.73-9.49L229.63-9.49L229.63-11.03L226.21-11.03L225.55-13.07L221.46-13.07L222.13-11.03L217.59-11.03Q218.31-12.01 218.89-13.07L218.89-13.07L214.31-13.07Q213.59-12.06 212.58-11.03L212.58-11.03L203.07-11.03L203.07-9.49L210.97-9.49Q207.31-6.36 203.07-4.37L203.07-4.37L203.57-3.37Q203.76-3.37 204.08-3.42L204.08-3.42L204.08 3.79L215.85 3.79L215.85-4.37L208.29-4.37Q213.09-6.02 216.32-9.49L216.32-9.49ZM224.51 2.25L220.93 2.25L220.93-2.86L224.51-2.86L224.51 2.25ZM228.60-13.57L216.85-13.57L216.85-21.23L228.60-21.23L228.60-13.57ZM220.93-15.11L224.51-15.11L224.51-19.72L220.93-19.72L220.93-15.11ZM211.74 2.25L208.16 2.25L208.16-2.86L211.74-2.86L211.74 2.25ZM208.16-15.11L211.74-15.11L211.74-19.72L208.16-19.72L208.16-15.11Z" transform="translate(-1.2988360032269, 22.265760055319)"></path>
                </g>                <!---->                <!---->                <!---->                <!---->                <!---->                <!---->                <!----></g>
            <g fill="#fff" transform="translate(0,35.61000061035156)" mask="url(#5f016a59-356c-4a1c-b890-36644f8432d3)">
                <g>
                    <rect stroke-width="2px" class="i-icon-bg" x="0" y="0" width="228.3300018310547" height="14.950000762939453" stroke="rgb(255, 255, 255)"></rect>                    <!---->                    <!----></g>
                <g transform="translate(45.165000915527344,3)">
                    <g class="tp-slogan" fill="#fff">                        <!---->                        <!---->                        <!---->
                        <g>
                            <path d="M0.19-1.92L0.19-2.77L1.27-2.77L1.27-2.16Q1.27-0.75 2.58-0.75L2.58-0.75Q3.94-0.75 3.94-2.25L3.94-2.25L3.94-8.58L5.11-8.58L5.11-2.30Q5.06 0.09 2.63 0.14L2.63 0.14Q0.33 0.09 0.19-1.92L0.19-1.92ZM12.56 0L11.72-2.48L8.25-2.48L7.36 0L6.19 0L9.42-8.58L10.73-8.58L13.83 0L12.56 0ZM9.98-7.31L8.63-3.52L11.30-3.52L10.03-7.31L9.98-7.31ZM15.52-8.58L17.95-1.27L20.44-8.58L21.75-8.58L18.61 0L17.34 0L14.20-8.58L15.52-8.58ZM28.50 0L27.66-2.48L24.19-2.48L23.30 0L22.13 0L25.36-8.58L26.67-8.58L29.77 0L28.50 0ZM25.92-7.31L24.56-3.52L27.23-3.52L25.97-7.31L25.92-7.31ZM37.08-6.09L37.08-6.09L36-6.09Q35.91-7.73 33.84-7.83L33.84-7.83Q31.92-7.78 31.92-6.33L31.92-6.33Q31.92-5.39 32.95-5.25L32.95-5.25L35.39-4.69Q37.31-4.22 37.31-2.34L37.31-2.34Q37.27 0.05 33.94 0.14L33.94 0.14Q32.11 0.14 31.36-0.61L31.36-0.61Q30.42-1.31 30.47-2.77L30.47-2.77L31.59-2.77Q31.64-0.80 33.94-0.75L33.94-0.75Q36.19-0.80 36.23-2.20L36.23-2.20Q36.42-3.38 34.36-3.75L34.36-3.75L32.58-4.13Q30.75-4.64 30.75-6.19L30.75-6.19Q30.89-8.72 33.75-8.81L33.75-8.81Q36.98-8.81 37.08-6.09ZM45.94-6.05L45.94-6.05L44.81-6.05Q44.39-7.78 42.42-7.83L42.42-7.83Q39.70-7.69 39.61-4.36L39.61-4.36Q39.61-0.80 42.47-0.80L42.47-0.80Q44.44-0.84 44.91-3.19L44.91-3.19L46.03-3.19Q45.52 0.05 42.23 0.14L42.23 0.14Q38.48 0 38.39-4.31L38.39-4.31Q38.58-8.63 42.42-8.81L42.42-8.81Q45.47-8.72 45.94-6.05ZM51.52-3.70L48.70-3.70L48.70 0L47.53 0L47.53-8.58L51.52-8.58Q54.38-8.58 54.38-6.28L54.38-6.28Q54.38-4.88 53.16-4.22L53.16-4.22Q54.19-3.94 54.19-2.58L54.19-2.58L54.28-1.03Q54.23-0.38 54.70-0.19L54.70-0.19L54.70 0L53.25 0Q53.11-0.61 53.06-2.16L53.06-2.16Q53.11-3.70 51.52-3.70L51.52-3.70ZM51.61-7.64L48.70-7.64L48.70-4.69L51.42-4.69Q53.16-4.69 53.16-6.19L53.16-6.19Q53.16-7.64 51.61-7.64L51.61-7.64ZM56.20-8.58L57.38-8.58L57.38 0L56.20 0L56.20-8.58ZM63-7.64L60.66-7.64L60.66-4.64L62.95-4.64Q64.73-4.64 64.73-6.19L64.73-6.19Q64.73-7.59 63-7.64L63-7.64ZM63.38-3.61L60.66-3.61L60.66 0L59.48 0L59.48-8.58L63.38-8.58Q65.81-8.48 65.91-6.19L65.91-6.19Q65.77-3.70 63.38-3.61L63.38-3.61ZM69.52-7.59L66.61-7.59L66.61-8.58L73.55-8.58L73.55-7.59L70.64-7.59L70.64 0L69.52 0L69.52-7.59ZM83.58 0L82.73-2.48L79.27-2.48L78.38 0L77.20 0L80.44-8.58L81.75-8.58L84.84 0L83.58 0ZM81-7.31L79.64-3.52L82.31-3.52L81.05-7.31L81-7.31ZM90-3.70L87.19-3.70L87.19 0L86.02 0L86.02-8.58L90-8.58Q92.86-8.58 92.86-6.28L92.86-6.28Q92.86-4.88 91.64-4.22L91.64-4.22Q92.67-3.94 92.67-2.58L92.67-2.58L92.77-1.03Q92.72-0.38 93.19-0.19L93.19-0.19L93.19 0L91.73 0Q91.59-0.61 91.55-2.16L91.55-2.16Q91.59-3.70 90-3.70L90-3.70ZM90.09-7.64L87.19-7.64L87.19-4.69L89.91-4.69Q91.64-4.69 91.64-6.19L91.64-6.19Q91.64-7.64 90.09-7.64L90.09-7.64ZM96.70-7.59L93.80-7.59L93.80-8.58L100.73-8.58L100.73-7.59L97.83-7.59L97.83 0L96.70 0L96.70-7.59ZM101.95-8.58L103.13-8.58L103.13 0L101.95 0L101.95-8.58ZM110.63-3.89L106.41-3.89L106.41 0L105.23 0L105.23-8.58L111.19-8.58L111.19-7.59L106.41-7.59L106.41-4.92L110.63-4.92L110.63-3.89ZM118.03 0L117.19-2.48L113.72-2.48L112.83 0L111.66 0L114.89-8.58L116.20-8.58L119.30 0L118.03 0ZM115.45-7.31L114.09-3.52L116.77-3.52L115.50-7.31L115.45-7.31ZM127.50-6.05L127.50-6.05L126.38-6.05Q125.95-7.78 123.98-7.83L123.98-7.83Q121.27-7.69 121.17-4.36L121.17-4.36Q121.17-0.80 124.03-0.80L124.03-0.80Q126-0.84 126.47-3.19L126.47-3.19L127.59-3.19Q127.08 0.05 123.80 0.14L123.80 0.14Q120.05 0 119.95-4.31L119.95-4.31Q120.14-8.63 123.98-8.81L123.98-8.81Q127.03-8.72 127.50-6.05ZM131.16-7.59L128.25-7.59L128.25-8.58L135.19-8.58L135.19-7.59L132.28-7.59L132.28 0L131.16 0L131.16-7.59Z" transform="translate(-0.1875, 8.8125)"></path>
                        </g>
                    </g>
                </g>
            </g>
        </g>
    </g>
    <mask id="5f016a59-356c-4a1c-b890-36644f8432d3">
        <g fill="white">
            <rect stroke-width="2px" class="i-icon-bg" x="0" y="0" width="228.3300018310547" height="14.950000762939453" stroke="white"></rect>
        </g>
        <g transform="translate(45.165000915527344,3)" fill="black">
            <g class="tp-slogan">
                <g>
                    <path d="M0.19-1.92L0.19-2.77L1.27-2.77L1.27-2.16Q1.27-0.75 2.58-0.75L2.58-0.75Q3.94-0.75 3.94-2.25L3.94-2.25L3.94-8.58L5.11-8.58L5.11-2.30Q5.06 0.09 2.63 0.14L2.63 0.14Q0.33 0.09 0.19-1.92L0.19-1.92ZM12.56 0L11.72-2.48L8.25-2.48L7.36 0L6.19 0L9.42-8.58L10.73-8.58L13.83 0L12.56 0ZM9.98-7.31L8.63-3.52L11.30-3.52L10.03-7.31L9.98-7.31ZM15.52-8.58L17.95-1.27L20.44-8.58L21.75-8.58L18.61 0L17.34 0L14.20-8.58L15.52-8.58ZM28.50 0L27.66-2.48L24.19-2.48L23.30 0L22.13 0L25.36-8.58L26.67-8.58L29.77 0L28.50 0ZM25.92-7.31L24.56-3.52L27.23-3.52L25.97-7.31L25.92-7.31ZM37.08-6.09L37.08-6.09L36-6.09Q35.91-7.73 33.84-7.83L33.84-7.83Q31.92-7.78 31.92-6.33L31.92-6.33Q31.92-5.39 32.95-5.25L32.95-5.25L35.39-4.69Q37.31-4.22 37.31-2.34L37.31-2.34Q37.27 0.05 33.94 0.14L33.94 0.14Q32.11 0.14 31.36-0.61L31.36-0.61Q30.42-1.31 30.47-2.77L30.47-2.77L31.59-2.77Q31.64-0.80 33.94-0.75L33.94-0.75Q36.19-0.80 36.23-2.20L36.23-2.20Q36.42-3.38 34.36-3.75L34.36-3.75L32.58-4.13Q30.75-4.64 30.75-6.19L30.75-6.19Q30.89-8.72 33.75-8.81L33.75-8.81Q36.98-8.81 37.08-6.09ZM45.94-6.05L45.94-6.05L44.81-6.05Q44.39-7.78 42.42-7.83L42.42-7.83Q39.70-7.69 39.61-4.36L39.61-4.36Q39.61-0.80 42.47-0.80L42.47-0.80Q44.44-0.84 44.91-3.19L44.91-3.19L46.03-3.19Q45.52 0.05 42.23 0.14L42.23 0.14Q38.48 0 38.39-4.31L38.39-4.31Q38.58-8.63 42.42-8.81L42.42-8.81Q45.47-8.72 45.94-6.05ZM51.52-3.70L48.70-3.70L48.70 0L47.53 0L47.53-8.58L51.52-8.58Q54.38-8.58 54.38-6.28L54.38-6.28Q54.38-4.88 53.16-4.22L53.16-4.22Q54.19-3.94 54.19-2.58L54.19-2.58L54.28-1.03Q54.23-0.38 54.70-0.19L54.70-0.19L54.70 0L53.25 0Q53.11-0.61 53.06-2.16L53.06-2.16Q53.11-3.70 51.52-3.70L51.52-3.70ZM51.61-7.64L48.70-7.64L48.70-4.69L51.42-4.69Q53.16-4.69 53.16-6.19L53.16-6.19Q53.16-7.64 51.61-7.64L51.61-7.64ZM56.20-8.58L57.38-8.58L57.38 0L56.20 0L56.20-8.58ZM63-7.64L60.66-7.64L60.66-4.64L62.95-4.64Q64.73-4.64 64.73-6.19L64.73-6.19Q64.73-7.59 63-7.64L63-7.64ZM63.38-3.61L60.66-3.61L60.66 0L59.48 0L59.48-8.58L63.38-8.58Q65.81-8.48 65.91-6.19L65.91-6.19Q65.77-3.70 63.38-3.61L63.38-3.61ZM69.52-7.59L66.61-7.59L66.61-8.58L73.55-8.58L73.55-7.59L70.64-7.59L70.64 0L69.52 0L69.52-7.59ZM83.58 0L82.73-2.48L79.27-2.48L78.38 0L77.20 0L80.44-8.58L81.75-8.58L84.84 0L83.58 0ZM81-7.31L79.64-3.52L82.31-3.52L81.05-7.31L81-7.31ZM90-3.70L87.19-3.70L87.19 0L86.02 0L86.02-8.58L90-8.58Q92.86-8.58 92.86-6.28L92.86-6.28Q92.86-4.88 91.64-4.22L91.64-4.22Q92.67-3.94 92.67-2.58L92.67-2.58L92.77-1.03Q92.72-0.38 93.19-0.19L93.19-0.19L93.19 0L91.73 0Q91.59-0.61 91.55-2.16L91.55-2.16Q91.59-3.70 90-3.70L90-3.70ZM90.09-7.64L87.19-7.64L87.19-4.69L89.91-4.69Q91.64-4.69 91.64-6.19L91.64-6.19Q91.64-7.64 90.09-7.64L90.09-7.64ZM96.70-7.59L93.80-7.59L93.80-8.58L100.73-8.58L100.73-7.59L97.83-7.59L97.83 0L96.70 0L96.70-7.59ZM101.95-8.58L103.13-8.58L103.13 0L101.95 0L101.95-8.58ZM110.63-3.89L106.41-3.89L106.41 0L105.23 0L105.23-8.58L111.19-8.58L111.19-7.59L106.41-7.59L106.41-4.92L110.63-4.92L110.63-3.89ZM118.03 0L117.19-2.48L113.72-2.48L112.83 0L111.66 0L114.89-8.58L116.20-8.58L119.30 0L118.03 0ZM115.45-7.31L114.09-3.52L116.77-3.52L115.50-7.31L115.45-7.31ZM127.50-6.05L127.50-6.05L126.38-6.05Q125.95-7.78 123.98-7.83L123.98-7.83Q121.27-7.69 121.17-4.36L121.17-4.36Q121.17-0.80 124.03-0.80L124.03-0.80Q126-0.84 126.47-3.19L126.47-3.19L127.59-3.19Q127.08 0.05 123.80 0.14L123.80 0.14Q120.05 0 119.95-4.31L119.95-4.31Q120.14-8.63 123.98-8.81L123.98-8.81Q127.03-8.72 127.50-6.05ZM131.16-7.59L128.25-7.59L128.25-8.58L135.19-8.58L135.19-7.59L132.28-7.59L132.28 0L131.16 0L131.16-7.59Z" transform="translate(-0.1875, 8.8125)"></path>
                </g>
            </g>
        </g>
    </mask>
</svg>